<?xml version="1.0" encoding="iso-8859-1"?>
<!-- Generator: Adobe Illustrator 19.0.0, SVG Export Plug-In . SVG Version: 6.00 Build 0)  -->
<svg xmlns="http://www.w3.org/2000/svg" xmlns:xlink="http://www.w3.org/1999/xlink" version="1.1" id="Layer_1" x="0px" y="0px" viewBox="0 0 512 512" style="enable-background:new 0 0 512 512;" xml:space="preserve" width="40px" height="40px">
<g>
	<g>
		<path d="M505.432,95.554c-97.645-97.646-256.523-97.646-354.167,0c-6.52,6.519-6.52,17.091,0,23.611    c6.519,6.519,17.091,6.519,23.611,0c84.625-84.624,222.32-84.624,306.945,0c6.52,6.52,17.091,6.519,23.611,0    C511.952,112.645,511.952,102.074,505.432,95.554z" fill="#FFFFFF"/>
	</g>
</g>
<g>
	<g>
		<path d="M458.21,142.776c-71.607-71.604-188.118-71.604-259.723,0c-6.52,6.519-6.52,17.091,0,23.611    c6.52,6.521,17.091,6.519,23.611,0c58.587-58.585,153.914-58.585,212.501,0c6.52,6.52,17.091,6.52,23.611,0    C464.729,159.867,464.729,149.296,458.21,142.776z" fill="#FFFFFF"/>
	</g>
</g>
<g>
	<g>
		<path d="M328.348,222.551c-27.618,0-50.087,22.469-50.087,50.087c0,27.618,22.469,50.087,50.087,50.087    s50.087-22.469,50.087-50.087C378.435,245.02,355.966,222.551,328.348,222.551z M328.348,289.333    c-9.206,0-16.696-7.49-16.696-16.696c0-9.206,7.49-16.696,16.696-16.696s16.696,7.49,16.696,16.696    C345.043,281.844,337.554,289.333,328.348,289.333z" fill="#FFFFFF"/>
	</g>
</g>
<g>
	<g>
		<path d="M461.913,222.551h-27.987c-18.79-39.45-59.05-66.783-105.578-66.783c-46.527,0-86.787,27.333-105.578,66.783H50.087    C22.469,222.551,0,245.02,0,272.638v133.565c0,27.618,22.469,50.087,50.087,50.087h16.696v16.696    c0,9.22,7.475,16.696,16.696,16.696s16.696-7.475,16.696-16.696V456.29h311.652v16.696c0,9.22,7.475,16.696,16.696,16.696    s16.696-7.475,16.696-16.696V456.29h16.696c27.618,0,50.087-22.469,50.087-50.087V272.638    C512,245.019,489.531,222.551,461.913,222.551z M328.348,189.159c46.03,0,83.478,37.448,83.478,83.478    s-37.448,83.478-83.478,83.478s-83.478-37.448-83.478-83.478C244.87,226.608,282.318,189.159,328.348,189.159z M478.609,406.203    c0,9.206-7.49,16.696-16.696,16.696H50.087c-9.206,0-16.696-7.49-16.696-16.696V272.638c0-9.206,7.49-16.807,16.696-16.807    h162.589c-0.784,5.455-1.198,11.138-1.198,16.807c0,64.442,52.428,116.87,116.87,116.87s116.87-52.428,116.87-116.87    c0-5.669-0.414-11.241-1.198-16.696h17.893c9.206,0,16.696,7.49,16.696,16.696V406.203z" fill="#FFFFFF"/>
	</g>
</g>
<g>
	<g>
		<path d="M161.391,289.333H83.478c-9.22,0-16.696,7.475-16.696,16.696c0,9.22,7.475,16.696,16.696,16.696h77.913    c9.22,0,16.696-7.475,16.696-16.696C178.087,296.809,170.612,289.333,161.391,289.333z" fill="#FFFFFF"/>
	</g>
</g>
<g>
	<g>
		<path d="M161.391,356.116H83.478c-9.22,0-16.696,7.475-16.696,16.696c0,9.22,7.475,16.696,16.696,16.696h77.913    c9.22,0,16.696-7.475,16.696-16.696C178.087,363.591,170.612,356.116,161.391,356.116z" fill="#FFFFFF"/>
	</g>
</g>
<g>
</g>
<g>
</g>
<g>
</g>
<g>
</g>
<g>
</g>
<g>
</g>
<g>
</g>
<g>
</g>
<g>
</g>
<g>
</g>
<g>
</g>
<g>
</g>
<g>
</g>
<g>
</g>
<g>
</g>
</svg>
